<svg width="68" height="83" viewBox="0 0 68 83" fill="none" xmlns="http://www.w3.org/2000/svg">
<path d="M39.7701 0H67.9908L67.982 44.5104C67.982 45.3252 67.8854 46.6539 67.7514 47.4577C65.7793 59.2206 57.1965 67.6496 45.2799 67.665C36.3414 67.676 17.2256 67.665 17.2256 67.665C17.2256 67.665 17.2169 48.132 17.23 39.7007C17.2366 35.9738 19.8172 33.2176 23.397 33.1099C26.9329 33.0023 28.9855 32.9104 28.9855 32.9104V40.3863L41.1167 27.9005C41.1167 27.9005 31.0509 27.9005 23.2828 27.9005C16.3444 27.9005 11.8603 33.9489 11.9613 40.028C12.1326 50.5017 12.0097 62.3392 12.0097 72.8151H37.8251L28.1303 82.9066H0C0 82.9066 0.020589 54.0551 0.0183928 39.7095C0.0183928 38.6905 0.0842788 37.6671 0.196285 36.6546C1.52279 24.6655 11.7373 15.4393 23.8011 15.3734C32.375 15.3273 50.5596 15.3475 50.5596 15.3475C50.5596 24.3629 50.564 34.4496 50.5596 43.465C50.5574 47.1766 47.8671 49.9065 44.1687 49.9241C40.0464 49.9438 38.5299 49.9304 38.5299 49.9304V43.1635L26.8757 55.1444C26.8757 55.1444 35.7353 55.1444 44.2499 55.1444C51.006 55.1444 55.8217 49.9592 55.8217 43.1751C55.8217 32.5894 55.8217 10.0103 55.8217 10.0103H30.2206L39.7701 0Z" fill="#131313"/>
</svg>
