<svg width="307" height="36" viewBox="0 0 307 36" fill="none" xmlns="http://www.w3.org/2000/svg">
<g clip-path="url(#clip0_1_309)">
<path d="M306.895 0H89.4575V36H306.895V0Z" fill="#F5F5F5"/>
<path d="M85.8983 28.1452H81.1836V23.2349H85.8983V28.1452Z" fill="#F5F5F5"/>
<path d="M105.057 16.4295H103.106V12.5915H105.057V12.1118C105.057 11.1758 105.192 10.348 105.459 9.63309C105.725 8.91817 106.123 8.31613 106.652 7.82697C107.18 7.33782 107.826 6.97095 108.602 6.72167C109.374 6.47239 110.267 6.3501 111.273 6.3501C111.717 6.3501 112.185 6.37361 112.676 6.42065C113.167 6.46768 113.663 6.53823 114.163 6.6276V10.2822C113.813 10.221 113.471 10.174 113.139 10.1458C112.807 10.1175 112.498 10.0987 112.218 10.0987C111.357 10.0987 110.725 10.268 110.319 10.6067C109.912 10.9453 109.711 11.4721 109.711 12.187V12.5962H114.159V16.4342H109.935V28.1552H105.052V16.4342L105.057 16.4295Z" fill="#131313"/>
<path d="M114.594 20.366C114.594 19.5335 114.682 18.7528 114.86 18.0284C115.038 17.3041 115.29 16.6362 115.627 16.0248C115.959 15.418 116.362 14.8724 116.839 14.3927C117.316 13.9129 117.844 13.5131 118.438 13.1839C119.032 12.8547 119.673 12.6054 120.37 12.4314C121.067 12.2573 121.801 12.168 122.578 12.168C123.354 12.168 124.098 12.2573 124.795 12.4314C125.492 12.6054 126.132 12.8594 126.722 13.1839C127.311 13.5131 127.844 13.9176 128.317 14.3927C128.789 14.8724 129.196 15.4133 129.528 16.0248C129.86 16.6315 130.113 17.2994 130.29 18.0284C130.468 18.7575 130.557 19.5335 130.557 20.366C130.557 21.1985 130.468 21.9793 130.29 22.7083C130.113 23.4374 129.86 24.1053 129.528 24.712C129.196 25.3187 128.794 25.8596 128.317 26.3394C127.84 26.8191 127.311 27.2236 126.722 27.5529C126.132 27.8868 125.487 28.1361 124.795 28.3101C124.098 28.4841 123.359 28.5688 122.578 28.5688C121.797 28.5688 121.067 28.4794 120.37 28.3101C119.673 28.1361 119.028 27.8821 118.438 27.5529C117.849 27.2236 117.311 26.8191 116.839 26.3394C116.362 25.8643 115.959 25.3187 115.627 24.712C115.295 24.1053 115.038 23.4374 114.86 22.7083C114.682 21.9793 114.594 21.1985 114.594 20.366ZM119.519 20.366C119.519 21.0104 119.589 21.5795 119.724 22.0781C119.86 22.5766 120.057 22.9905 120.318 23.3292C120.58 23.6678 120.903 23.9171 121.282 24.0911C121.661 24.2605 122.096 24.3498 122.587 24.3498C123.078 24.3498 123.513 24.2652 123.892 24.0911C124.271 23.9171 124.589 23.6631 124.851 23.3292C125.113 22.9952 125.309 22.5766 125.44 22.0781C125.571 21.5842 125.641 21.0104 125.641 20.366C125.641 19.7217 125.576 19.1526 125.44 18.654C125.304 18.1601 125.108 17.7415 124.851 17.4076C124.594 17.0736 124.271 16.8197 123.892 16.6503C123.513 16.481 123.078 16.3916 122.587 16.3916C122.096 16.3916 121.661 16.4763 121.282 16.6503C120.903 16.8244 120.58 17.0736 120.318 17.4076C120.057 17.7415 119.86 18.1554 119.724 18.654C119.589 19.1526 119.519 19.7217 119.519 20.366Z" fill="#131313"/>
<path d="M142.208 12.5908H147.091V28.1497H142.208V23.3899C141.904 25.1019 141.31 26.3954 140.421 27.2655C139.533 28.1356 138.368 28.5731 136.928 28.5731C135.309 28.5731 134.088 28.0039 133.27 26.8704C132.451 25.7369 132.04 24.0437 132.04 21.8001V12.5908H136.923V20.7419C136.923 21.9506 137.129 22.8537 137.545 23.451C137.961 24.0484 138.593 24.3494 139.444 24.3494C140.342 24.3494 141.025 24.0342 141.502 23.4087C141.974 22.7831 142.208 21.8566 142.208 20.6337V12.6002V12.5908Z" fill="#131313"/>
<path d="M153.827 28.1455H148.944V12.5913H153.827V17.3511C154.131 15.6391 154.725 14.3457 155.613 13.4755C156.502 12.6054 157.667 12.168 159.107 12.168C160.73 12.168 161.951 12.7371 162.77 13.8706C163.588 15.0088 163.995 16.6974 163.995 18.9409V28.1502H159.112V19.9992C159.112 18.7904 158.902 17.8873 158.49 17.29C158.074 16.6927 157.438 16.3916 156.586 16.3916C155.688 16.3916 155.005 16.7068 154.528 17.3323C154.056 17.9579 153.822 18.8845 153.822 20.1073V28.1408L153.827 28.1455Z" fill="#131313"/>
<path d="M181.399 7.26221V28.1454H176.516V23.4608C176.357 24.2886 176.132 25.0176 175.842 25.6573C175.552 26.297 175.197 26.8237 174.781 27.2565C174.36 27.6892 173.883 28.0184 173.349 28.2348C172.812 28.4558 172.222 28.5687 171.572 28.5687C170.973 28.5687 170.407 28.4793 169.87 28.2959C169.332 28.1172 168.841 27.8538 168.387 27.5151C167.933 27.1765 167.531 26.7673 167.171 26.2829C166.811 25.8031 166.507 25.2575 166.254 24.6461C166.001 24.0393 165.81 23.3714 165.674 22.6518C165.543 21.9322 165.473 21.1702 165.473 20.3565C165.473 19.5428 165.538 18.7809 165.674 18.0613C165.81 17.3416 166.001 16.6785 166.254 16.0717C166.507 15.465 166.811 14.9194 167.171 14.4349C167.531 13.9505 167.938 13.5413 168.387 13.2026C168.836 12.8687 169.332 12.61 169.87 12.4266C170.407 12.2478 170.973 12.1538 171.572 12.1538C172.222 12.1538 172.816 12.2666 173.349 12.4877C173.887 12.7088 174.364 13.0333 174.781 13.466C175.197 13.8987 175.552 14.4302 175.842 15.0652C176.132 15.7001 176.357 16.4292 176.516 17.2617V7.26221H181.399ZM176.516 20.3659C176.516 19.7169 176.446 19.1431 176.31 18.6445C176.175 18.1459 175.978 17.7273 175.716 17.3934C175.454 17.0594 175.136 16.8007 174.753 16.6267C174.369 16.4527 173.929 16.368 173.434 16.368C172.433 16.368 171.675 16.702 171.165 17.3746C170.655 18.0472 170.398 19.0443 170.398 20.3706C170.398 21.697 170.651 22.7082 171.16 23.3761C171.666 24.044 172.428 24.378 173.438 24.378C173.934 24.378 174.374 24.2886 174.757 24.1146C175.141 23.9405 175.464 23.6819 175.721 23.3479C175.978 23.0093 176.179 22.5907 176.315 22.0921C176.45 21.5935 176.521 21.0197 176.521 20.3706L176.516 20.3659Z" fill="#131313"/>
<path d="M183.808 18.4329C183.808 17.464 183.985 16.5939 184.336 15.8225C184.687 15.0512 185.197 14.3927 185.856 13.8518C186.516 13.3062 187.316 12.8923 188.26 12.6007C189.205 12.3138 190.262 12.168 191.441 12.168C192.62 12.168 193.714 12.3185 194.654 12.6242C195.594 12.9299 196.389 13.3673 197.04 13.9412C197.69 14.5197 198.186 15.2252 198.527 16.0624C198.868 16.8996 199.037 17.8497 199.037 18.9174V28.1455H194.154V24.2652C193.99 24.9284 193.737 25.5257 193.391 26.0572C193.045 26.5887 192.629 27.0402 192.133 27.4118C191.637 27.7833 191.081 28.0702 190.459 28.2678C189.837 28.4653 189.158 28.5688 188.433 28.5688C187.671 28.5688 186.979 28.4606 186.352 28.2396C185.73 28.0185 185.192 27.7128 184.743 27.313C184.294 26.9179 183.953 26.4382 183.709 25.8831C183.466 25.3281 183.344 24.7073 183.344 24.0253C183.344 23.2775 183.494 22.6096 183.789 22.0169C184.083 21.429 184.518 20.9304 185.084 20.526C185.655 20.1215 186.347 19.811 187.171 19.5994C187.994 19.3877 188.924 19.2795 189.968 19.2795H194.149V18.9174C194.149 18.4329 194.088 18.0002 193.962 17.6239C193.836 17.2477 193.658 16.9278 193.415 16.6644C193.171 16.4058 192.877 16.2035 192.526 16.0671C192.175 15.9307 191.768 15.8602 191.31 15.8602C190.852 15.8602 190.459 15.9213 190.127 16.0389C189.794 16.1565 189.519 16.3258 189.303 16.5422C189.088 16.7585 188.924 17.0313 188.817 17.3464C188.714 17.6616 188.658 18.0237 188.658 18.4282H183.794L183.808 18.4329ZM190.632 21.9323C189.846 21.9323 189.252 22.064 188.854 22.3227C188.457 22.5813 188.256 22.9717 188.256 23.4844C188.256 23.9971 188.452 24.3969 188.85 24.6791C189.247 24.9613 189.813 25.1024 190.538 25.1024C191.053 25.1024 191.53 25.0318 191.969 24.8954C192.409 24.759 192.793 24.5662 193.115 24.3263C193.438 24.0864 193.691 23.7995 193.878 23.475C194.065 23.1458 194.154 22.7883 194.154 22.4073V21.937H190.632V21.9323Z" fill="#131313"/>
<path d="M211.02 28.028C210.332 28.2067 209.692 28.3431 209.093 28.4325C208.494 28.5265 207.938 28.5689 207.414 28.5689C205.636 28.5689 204.294 28.0515 203.387 27.012C202.479 25.9726 202.026 24.4251 202.026 22.3698V16.4293H200.173V12.5913H202.026V9.00732H206.909V12.5913H211.02V16.4293H206.909V22.3792C206.909 23.2023 207.058 23.7996 207.353 24.1806C207.648 24.5568 208.129 24.745 208.789 24.745C209.06 24.745 209.374 24.7168 209.734 24.6556C210.094 24.5945 210.524 24.5051 211.02 24.3828V28.0374V28.028Z" fill="#131313"/>
<path d="M217.54 11.0438H212.601V7.26221H217.54V11.0438ZM217.512 28.1454H212.629V12.5912H217.512V28.1501V28.1454Z" fill="#131313"/>
<path d="M219.056 20.366C219.056 19.5335 219.145 18.7528 219.323 18.0284C219.5 17.3041 219.753 16.6362 220.09 16.0248C220.422 15.418 220.824 14.8724 221.301 14.3927C221.778 13.9129 222.307 13.5131 222.901 13.1839C223.495 12.8547 224.135 12.6054 224.832 12.4314C225.529 12.2573 226.264 12.168 227.04 12.168C227.816 12.168 228.56 12.2573 229.257 12.4314C229.954 12.6054 230.595 12.8594 231.184 13.1839C231.773 13.5131 232.307 13.9176 232.779 14.3927C233.251 14.8724 233.658 15.4133 233.99 16.0248C234.323 16.6315 234.575 17.2994 234.753 18.0284C234.931 18.7575 235.019 19.5335 235.019 20.366C235.019 21.1985 234.931 21.9793 234.753 22.7083C234.575 23.4374 234.323 24.1053 233.99 24.712C233.658 25.3187 233.256 25.8596 232.779 26.3394C232.302 26.8191 231.773 27.2236 231.184 27.5529C230.595 27.8868 229.949 28.1361 229.257 28.3101C228.56 28.4841 227.821 28.5688 227.04 28.5688C226.259 28.5688 225.529 28.4794 224.832 28.3101C224.135 28.1361 223.49 27.8821 222.901 27.5529C222.311 27.2236 221.773 26.8191 221.301 26.3394C220.824 25.8643 220.422 25.3187 220.09 24.712C219.757 24.1053 219.5 23.4374 219.323 22.7083C219.145 21.9793 219.056 21.1985 219.056 20.366ZM223.981 20.366C223.981 21.0104 224.051 21.5795 224.187 22.0781C224.323 22.5766 224.519 22.9905 224.781 23.3292C225.043 23.6678 225.366 23.9171 225.744 24.0911C226.123 24.2605 226.558 24.3498 227.049 24.3498C227.541 24.3498 227.975 24.2652 228.354 24.0911C228.733 23.9171 229.051 23.6631 229.313 23.3292C229.575 22.9952 229.772 22.5766 229.903 22.0781C230.033 21.5842 230.104 21.0104 230.104 20.366C230.104 19.7217 230.038 19.1526 229.903 18.654C229.767 18.1601 229.57 17.7415 229.313 17.4076C229.056 17.0736 228.733 16.8197 228.354 16.6503C227.975 16.481 227.541 16.3916 227.049 16.3916C226.558 16.3916 226.123 16.4763 225.744 16.6503C225.366 16.8244 225.043 17.0736 224.781 17.4076C224.519 17.7415 224.323 18.1554 224.187 18.654C224.051 19.1526 223.981 19.7217 223.981 20.366Z" fill="#131313"/>
<path d="M241.45 28.1455H236.567V12.5913H241.45V17.3511C241.754 15.6391 242.348 14.3457 243.237 13.4755C244.126 12.6054 245.291 12.168 246.731 12.168C248.354 12.168 249.575 12.7371 250.393 13.8706C251.212 15.0088 251.619 16.6974 251.619 18.9409V28.1502H246.736V19.9992C246.736 18.7904 246.525 17.8873 246.114 17.29C245.697 16.6927 245.061 16.3916 244.21 16.3916C243.312 16.3916 242.629 16.7068 242.152 17.3323C241.68 17.9579 241.446 18.8845 241.446 20.1073V28.1408L241.45 28.1455Z" fill="#131313"/>
<path d="M101.777 3.79102V6.26972H97.7595V29.721H101.777V32.1997H95.042V3.79102H101.777Z" fill="#131313"/>
<path d="M259.902 3.79084V32.1948H253.167V29.7161H257.185V6.26484H253.167V3.78613H259.902V3.79084Z" fill="#131313"/>
<path d="M14.6163 2.68066H24.9905V19.1332C24.9905 19.4343 24.9531 19.9234 24.9016 20.2244C24.1766 24.5704 21.0241 27.6888 16.6415 27.6935C13.3581 27.6935 6.32812 27.6935 6.32812 27.6935C6.32812 27.6935 6.32812 20.4737 6.32812 17.3553C6.32812 15.9772 7.27761 14.9613 8.5966 14.919C9.89689 14.8813 10.6499 14.8437 10.6499 14.8437V17.6093L15.1074 12.9953H8.54983C6.00071 12.9953 4.34963 15.2294 4.38705 17.4776C4.44785 21.3486 4.40576 25.7227 4.40576 29.5984H13.896L10.3319 33.3282H-0.000244141C-0.000244141 33.3282 0.00911043 22.6655 0.00443314 17.36C0.00443314 16.9838 0.0278196 16.6028 0.0699151 16.2312C0.556353 11.8006 4.31221 8.39062 8.74628 8.3671C11.8988 8.34829 18.5826 8.3577 18.5826 8.3577C18.5826 11.6877 18.5826 15.4175 18.5826 18.7523C18.5826 20.1257 17.591 21.1322 16.2346 21.1416C14.7192 21.151 14.1626 21.1416 14.1626 21.1416V18.6394L9.87818 23.07H16.2627C18.7463 23.07 20.5143 21.1557 20.5143 18.6441V6.38226H11.1036L14.6116 2.68066H14.6163Z" fill="#493FEE"/>
<path d="M78.9148 11.2266C78.3675 10.3236 77.6192 9.63217 76.6697 9.15712C75.7202 8.67737 74.6585 8.4375 73.4798 8.4375H65.6968V27.1712H69.8362V20.3513H73.4798C74.6585 20.3513 75.7202 20.1114 76.6697 19.6363C77.6192 19.1378 78.3675 18.4511 78.9148 17.5668C79.4761 16.6638 79.7567 15.6008 79.7567 14.3826C79.7567 13.1644 79.4761 12.1109 78.9148 11.2266ZM75.2712 15.8689C75.028 16.2734 74.6912 16.5838 74.2702 16.7955C73.8493 17.0071 73.3816 17.1153 72.8717 17.1153H69.8362V11.6735H72.8717C73.3816 11.6735 73.8493 11.7816 74.2702 11.9933C74.6912 12.2049 75.028 12.5154 75.2712 12.9246C75.5191 13.3291 75.6407 13.8135 75.6407 14.3826C75.6407 14.9517 75.5191 15.4597 75.2712 15.8689Z" fill="#493FEE"/>
<path d="M63.0452 23.616V27.1718H49.6401V24.8342L56.7917 17.4075C57.2313 16.9654 57.5821 16.5562 57.8487 16.1846C58.1106 15.8131 58.3024 15.4697 58.4287 15.1499C58.5503 14.8159 58.6111 14.4773 58.6111 14.1433C58.6111 13.419 58.3726 12.8546 57.9002 12.4454C57.4418 12.0221 56.8337 11.8105 56.0807 11.8105C55.3277 11.8105 54.6728 12.0127 54.0742 12.4172C53.4942 12.8076 52.9282 13.4519 52.3857 14.355L49.6167 11.9421C50.3557 10.6863 51.2958 9.74095 52.4371 9.10128C53.583 8.46632 54.8927 8.14648 56.3707 8.14648C57.6523 8.14648 58.7608 8.38636 59.6962 8.86141C60.6457 9.34115 61.3754 10.0232 61.8852 10.9074C62.4137 11.7916 62.6757 12.8264 62.6757 14.0117C62.6757 14.7548 62.5775 15.4415 62.3857 16.0812C62.1939 16.6973 61.8759 17.3182 61.4362 17.939C61.0152 18.5411 60.4399 19.2042 59.7196 19.9286L56.0339 23.616H63.0452Z" fill="#493FEE"/>
<path d="M47.4512 11.2266C46.9086 10.3236 46.1602 9.63217 45.2107 9.15712C44.2613 8.67737 43.1948 8.4375 42.0162 8.4375H34.2332V27.1712H38.3772V20.3513H42.0162C43.1948 20.3513 44.2613 20.1114 45.2107 19.6363C46.1602 19.1378 46.9086 18.4511 47.4512 17.5668C48.0171 16.6638 48.2977 15.6008 48.2977 14.3826C48.2977 13.1644 48.0171 12.1109 47.4512 11.2266ZM43.8122 15.8689C43.5643 16.2734 43.2322 16.5838 42.8113 16.7955C42.3857 17.0071 41.9226 17.1153 41.4128 17.1153H38.3772V11.6735H41.4128C41.9226 11.6735 42.3857 11.7816 42.8113 11.9933C43.2322 12.2049 43.5643 12.5154 43.8122 12.9246C44.0601 13.3291 44.1817 13.8135 44.1817 14.3826C44.1817 14.9517 44.0601 15.4597 43.8122 15.8689Z" fill="#493FEE"/>
</g>
<defs>
<clipPath id="clip0_1_309">
<rect width="306.9" height="36" fill="white"/>
</clipPath>
</defs>
</svg>
