<svg width="484" height="56" viewBox="0 0 484 56" fill="none" xmlns="http://www.w3.org/2000/svg">
<g clip-path="url(#clip0_1_120)">
<path d="M483.992 0.000305176H141.08V56.0003H483.992V0.000305176Z" fill="#131313"/>
<path d="M135.467 43.7821H128.032V36.1437H135.467V43.7821Z" fill="#131313"/>
<path d="M165.681 25.5564H162.605V19.5862H165.681V18.84C165.681 17.384 165.895 16.0963 166.315 14.9842C166.735 13.8721 167.362 12.9356 168.196 12.1747C169.03 11.4138 170.047 10.8431 171.272 10.4553C172.489 10.0675 173.898 9.87732 175.484 9.87732C176.185 9.87732 176.922 9.9139 177.697 9.98707C178.471 10.0602 179.253 10.17 180.042 10.309V15.9939C179.489 15.8987 178.951 15.8256 178.427 15.7817C177.903 15.7378 177.416 15.7085 176.974 15.7085C175.617 15.7085 174.621 15.9719 173.979 16.4987C173.337 17.0255 173.02 17.8449 173.02 18.957V19.5935H180.035V25.5638H173.374V43.7963H165.673V25.5638L165.681 25.5564Z" fill="#F5F5F5"/>
<path d="M180.721 31.6804C180.721 30.3854 180.861 29.1709 181.141 28.0441C181.422 26.9174 181.82 25.8785 182.351 24.9273C182.875 23.9835 183.509 23.1348 184.262 22.3885C185.014 21.6423 185.848 21.0204 186.784 20.5082C187.721 19.9961 188.732 19.6083 189.831 19.3376C190.93 19.0669 192.088 18.9279 193.312 18.9279C194.537 18.9279 195.71 19.0669 196.809 19.3376C197.908 19.6083 198.918 20.0034 199.848 20.5082C200.777 21.0204 201.618 21.6496 202.363 22.3885C203.108 23.1348 203.75 23.9762 204.274 24.9273C204.797 25.8712 205.196 26.9101 205.476 28.0441C205.756 29.1782 205.896 30.3854 205.896 31.6804C205.896 32.9754 205.756 34.1899 205.476 35.324C205.196 36.458 204.797 37.497 204.274 38.4408C203.75 39.3846 203.116 40.226 202.363 40.9723C201.611 41.7186 200.777 42.3478 199.848 42.8599C198.918 43.3794 197.9 43.7672 196.809 44.0379C195.71 44.3086 194.544 44.4403 193.312 44.4403C192.081 44.4403 190.93 44.3013 189.831 44.0379C188.732 43.7672 187.714 43.3721 186.784 42.8599C185.855 42.3478 185.007 41.7186 184.262 40.9723C183.509 40.2333 182.875 39.3846 182.351 38.4408C181.827 37.497 181.422 36.458 181.141 35.324C180.861 34.1899 180.721 32.9754 180.721 31.6804ZM188.488 31.6804C188.488 32.6828 188.599 33.568 188.813 34.3436C189.027 35.1191 189.337 35.763 189.75 36.2898C190.163 36.8165 190.672 37.2043 191.269 37.475C191.867 37.7384 192.553 37.8774 193.327 37.8774C194.102 37.8774 194.788 37.7457 195.385 37.475C195.983 37.2043 196.484 36.8092 196.897 36.2898C197.31 35.7703 197.62 35.1191 197.827 34.3436C198.033 33.5754 198.144 32.6828 198.144 31.6804C198.144 30.6781 198.041 29.7928 197.827 29.0172C197.613 28.249 197.303 27.5978 196.897 27.0784C196.492 26.5589 195.983 26.1638 195.385 25.9004C194.788 25.637 194.102 25.498 193.327 25.498C192.553 25.498 191.867 25.6297 191.269 25.9004C190.672 26.1711 190.163 26.5589 189.75 27.0784C189.337 27.5978 189.027 28.2417 188.813 29.0172C188.599 29.7928 188.488 30.6781 188.488 31.6804Z" fill="#F5F5F5"/>
<path d="M224.271 19.5865H231.972V43.7893H224.271V36.385C223.791 39.0482 222.854 41.0602 221.453 42.4138C220.051 43.7673 218.215 44.4477 215.943 44.4477C213.39 44.4477 211.465 43.5624 210.174 41.7992C208.883 40.0359 208.234 37.402 208.234 33.9121V19.5865H215.935V32.2659C215.935 34.1462 216.26 35.551 216.916 36.4801C217.573 37.4093 218.569 37.8776 219.911 37.8776C221.327 37.8776 222.404 37.3874 223.157 36.4143C223.902 35.4412 224.271 33.9999 224.271 32.0976V19.6011V19.5865Z" fill="#F5F5F5"/>
<path d="M242.594 43.7818H234.893V19.5863H242.594V26.9906C243.074 24.3274 244.011 22.3154 245.412 20.9618C246.814 19.6083 248.65 18.9279 250.922 18.9279C253.482 18.9279 255.407 19.8131 256.698 21.5764C257.989 23.347 258.63 25.9736 258.63 29.4635V43.7891H250.93V31.1097C250.93 29.2294 250.598 27.8246 249.948 26.8955C249.292 25.9663 248.289 25.498 246.946 25.498C245.53 25.498 244.453 25.9882 243.701 26.9613C242.956 27.9344 242.587 29.3757 242.587 31.278V43.7745L242.594 43.7818Z" fill="#F5F5F5"/>
<path d="M286.078 11.2972V43.7822H278.377V36.495C278.126 37.7827 277.772 38.9167 277.315 39.9118C276.857 40.9068 276.297 41.7262 275.64 42.3993C274.976 43.0725 274.224 43.5846 273.383 43.9212C272.535 44.265 271.605 44.4406 270.58 44.4406C269.636 44.4406 268.743 44.3016 267.895 44.0163C267.047 43.7383 266.272 43.3285 265.557 42.8018C264.841 42.275 264.207 41.6384 263.639 40.8848C263.071 40.1386 262.591 39.2899 262.193 38.3387C261.795 37.3949 261.492 36.356 261.278 35.2366C261.072 34.1171 260.961 32.9319 260.961 31.6661C260.961 30.4004 261.064 29.2151 261.278 28.0957C261.492 26.9763 261.795 25.9447 262.193 25.0009C262.591 24.057 263.071 23.2083 263.639 22.4547C264.207 21.7012 264.849 21.0646 265.557 20.5378C266.265 20.0184 267.047 19.616 267.895 19.3306C268.743 19.0526 269.636 18.9063 270.58 18.9063C271.605 18.9063 272.542 19.0819 273.383 19.4257C274.231 19.7696 274.984 20.2744 275.64 20.9476C276.297 21.6207 276.857 22.4474 277.315 23.4351C277.772 24.4229 278.126 25.5569 278.377 26.8519V11.2972H286.078ZM278.377 31.6808C278.377 30.6711 278.266 29.7785 278.052 29.003C277.838 28.2274 277.528 27.5762 277.115 27.0568C276.702 26.5373 276.201 26.1349 275.596 25.8642C274.991 25.5935 274.298 25.4618 273.516 25.4618C271.937 25.4618 270.742 25.9813 269.938 27.0275C269.134 28.0738 268.728 29.6249 268.728 31.6881C268.728 33.7513 269.127 35.3244 269.931 36.3633C270.727 37.4022 271.93 37.9217 273.523 37.9217C274.305 37.9217 274.998 37.7827 275.603 37.512C276.208 37.2413 276.717 36.8389 277.123 36.3194C277.528 35.7926 277.846 35.1414 278.06 34.3659C278.273 33.5904 278.384 32.6978 278.384 31.6881L278.377 31.6808Z" fill="#F5F5F5"/>
<path d="M289.877 28.6733C289.877 27.1662 290.157 25.8126 290.71 24.6127C291.263 23.4128 292.068 22.3885 293.108 21.5471C294.148 20.6984 295.409 20.0546 296.899 19.601C298.389 19.1547 300.056 18.9279 301.915 18.9279C303.774 18.9279 305.5 19.162 306.983 19.6376C308.465 20.1131 309.719 20.7935 310.744 21.6862C311.77 22.5861 312.552 23.6835 313.09 24.9859C313.629 26.2882 313.894 27.7661 313.894 29.4269V43.7818H306.193V37.7457C305.935 38.7773 305.537 39.7065 304.991 40.5333C304.445 41.36 303.789 42.0624 303.007 42.6404C302.225 43.2184 301.347 43.6647 300.366 43.972C299.385 44.2793 298.315 44.4403 297.172 44.4403C295.97 44.4403 294.878 44.272 293.89 43.9281C292.908 43.5842 292.06 43.1087 291.352 42.4868C290.644 41.8722 290.105 41.1259 289.722 40.2626C289.338 39.3992 289.146 38.4335 289.146 37.3726C289.146 36.2093 289.383 35.1703 289.847 34.2485C290.312 33.3339 290.998 32.5584 291.89 31.9292C292.79 31.2999 293.882 30.8171 295.18 30.4878C296.479 30.1586 297.946 29.9903 299.591 29.9903H306.186V29.4269C306.186 28.6733 306.09 28.0002 305.891 27.4149C305.692 26.8296 305.411 26.3321 305.028 25.9224C304.644 25.52 304.18 25.2054 303.626 24.9932C303.073 24.781 302.431 24.6713 301.708 24.6713C300.986 24.6713 300.366 24.7664 299.842 24.9493C299.318 25.1322 298.883 25.3956 298.544 25.7321C298.205 26.0687 297.946 26.4931 297.777 26.9833C297.615 27.4735 297.526 28.0368 297.526 28.666H289.855L289.877 28.6733ZM300.639 34.1168C299.4 34.1168 298.463 34.3216 297.836 34.724C297.209 35.1264 296.892 35.7337 296.892 36.5312C296.892 37.3287 297.201 37.9506 297.828 38.3896C298.455 38.8286 299.348 39.0481 300.491 39.0481C301.303 39.0481 302.055 38.9383 302.748 38.7261C303.442 38.514 304.047 38.214 304.556 37.8408C305.065 37.4677 305.463 37.0214 305.758 36.5166C306.053 36.0044 306.193 35.4484 306.193 34.8557V34.1241H300.639V34.1168Z" fill="#F5F5F5"/>
<path d="M332.792 43.5987C331.707 43.8767 330.697 44.0889 329.753 44.2279C328.809 44.3742 327.931 44.44 327.105 44.44C324.302 44.44 322.185 43.6352 320.754 42.0183C319.323 40.4014 318.607 37.9943 318.607 34.797V25.5563H315.686V19.5861H318.607V14.011H326.308V19.5861H332.792V25.5563H326.308V34.8116C326.308 36.092 326.544 37.0212 327.009 37.6138C327.473 38.1991 328.233 38.4918 329.273 38.4918C329.701 38.4918 330.195 38.4479 330.763 38.3528C331.331 38.2577 332.01 38.1186 332.792 37.9284V43.6133V43.5987Z" fill="#F5F5F5"/>
<path d="M343.075 17.1796H335.285V11.2972H343.075V17.1796ZM343.031 43.7822H335.33V19.5867H343.031V43.7895V43.7822Z" fill="#F5F5F5"/>
<path d="M345.465 31.6804C345.465 30.3854 345.605 29.1709 345.885 28.0441C346.165 26.9174 346.564 25.8785 347.095 24.9273C347.618 23.9835 348.253 23.1348 349.005 22.3885C349.758 21.6423 350.591 21.0204 351.528 20.5082C352.465 19.9961 353.475 19.6083 354.574 19.3376C355.673 19.0669 356.832 18.9279 358.056 18.9279C359.281 18.9279 360.453 19.0669 361.552 19.3376C362.652 19.6083 363.662 20.0034 364.592 20.5082C365.521 21.0204 366.362 21.6496 367.107 22.3885C367.852 23.1348 368.494 23.9762 369.017 24.9273C369.541 25.8712 369.939 26.9101 370.22 28.0441C370.5 29.1782 370.64 30.3854 370.64 31.6804C370.64 32.9754 370.5 34.1899 370.22 35.324C369.939 36.458 369.541 37.497 369.017 38.4408C368.494 39.3846 367.859 40.226 367.107 40.9723C366.354 41.7186 365.521 42.3478 364.592 42.8599C363.662 43.3794 362.644 43.7672 361.552 44.0379C360.453 44.3086 359.288 44.4403 358.056 44.4403C356.824 44.4403 355.673 44.3013 354.574 44.0379C353.475 43.7672 352.457 43.3721 351.528 42.8599C350.599 42.3478 349.75 41.7186 349.005 40.9723C348.253 40.2333 347.618 39.3846 347.095 38.4408C346.571 37.497 346.165 36.458 345.885 35.324C345.605 34.1899 345.465 32.9754 345.465 31.6804ZM353.232 31.6804C353.232 32.6828 353.343 33.568 353.556 34.3436C353.77 35.1191 354.08 35.763 354.493 36.2898C354.906 36.8165 355.415 37.2043 356.013 37.475C356.61 37.7384 357.296 37.8774 358.071 37.8774C358.845 37.8774 359.531 37.7457 360.129 37.475C360.726 37.2043 361.228 36.8092 361.641 36.2898C362.054 35.7703 362.364 35.1191 362.57 34.3436C362.777 33.5754 362.888 32.6828 362.888 31.6804C362.888 30.6781 362.784 29.7928 362.57 29.0172C362.356 28.249 362.047 27.5978 361.641 27.0784C361.235 26.5589 360.726 26.1638 360.129 25.9004C359.531 25.637 358.845 25.498 358.071 25.498C357.296 25.498 356.61 25.6297 356.013 25.9004C355.415 26.1711 354.906 26.5589 354.493 27.0784C354.08 27.5978 353.77 28.2417 353.556 29.0172C353.343 29.7928 353.232 30.6781 353.232 31.6804Z" fill="#F5F5F5"/>
<path d="M380.783 43.7818H373.082V19.5863H380.783V26.9906C381.262 24.3274 382.199 22.3154 383.6 20.9618C385.002 19.6083 386.839 18.9279 389.111 18.9279C391.67 18.9279 393.595 19.8131 394.886 21.5764C396.177 23.347 396.819 25.9736 396.819 29.4635V43.7891H389.118V31.1097C389.118 29.2294 388.786 27.8246 388.137 26.8955C387.48 25.9663 386.477 25.498 385.135 25.498C383.718 25.498 382.642 25.9882 381.889 26.9613C381.144 27.9344 380.775 29.3757 380.775 31.278V43.7745L380.783 43.7818Z" fill="#F5F5F5"/>
<path d="M160.51 5.89734V9.7531H154.173V46.2328H160.51V50.0886H149.888V5.89734H160.51Z" fill="#F5F5F5"/>
<path d="M409.882 5.89758V50.0815H399.26V46.2258H405.596V9.74602H399.26V5.89026H409.882V5.89758Z" fill="#F5F5F5"/>
<path d="M23.0511 4.17078H39.4119V29.7637C39.4119 30.2319 39.3529 30.9928 39.2718 31.4611C38.1284 38.2215 33.1567 43.0723 26.2451 43.0796C21.0669 43.0796 9.98022 43.0796 9.98022 43.0796C9.98022 43.0796 9.98022 31.8489 9.98022 26.9981C9.98022 24.8543 11.4776 23.274 13.5578 23.2081C15.6084 23.1496 16.796 23.0911 16.796 23.0911V27.3931L23.8256 20.2157H13.484C9.46387 20.2157 6.86002 23.691 6.91903 27.1883C7.01492 33.2097 6.94853 40.014 6.94853 46.0427H21.9152L16.2944 51.8447H0C0 51.8447 0.0147527 35.2583 0.00737636 27.0054C0.00737636 26.4201 0.0442582 25.8274 0.110645 25.2494C0.877787 18.3573 6.80101 13.0529 13.7938 13.0163C18.7655 12.9871 29.3063 13.0017 29.3063 13.0017C29.3063 18.1818 29.3063 23.9837 29.3063 29.171C29.3063 31.3074 27.7425 32.8732 25.6034 32.8878C23.2134 32.9024 22.3356 32.8878 22.3356 32.8878V28.9954L15.5789 35.8875H25.6476C29.5645 35.8875 32.3527 32.9097 32.3527 29.0028V9.92881H17.5115L23.0438 4.17078H23.0511Z" fill="#493FEE"/>
<path d="M124.454 17.4651C123.591 16.0604 122.411 14.9848 120.913 14.2459C119.416 13.4996 117.742 13.1265 115.883 13.1265H103.608V42.2678H110.136V31.659H115.883C117.742 31.659 119.416 31.2859 120.913 30.5469C122.411 29.7714 123.591 28.7032 124.454 27.3277C125.339 25.9229 125.782 24.2694 125.782 22.3744C125.782 20.4795 125.339 18.8406 124.454 17.4651ZM118.708 24.6864C118.324 25.3156 117.793 25.7985 117.129 26.1278C116.465 26.457 115.728 26.6253 114.924 26.6253H110.136V18.1602H114.924C115.728 18.1602 116.465 18.3285 117.129 18.6577C117.793 18.9869 118.324 19.4698 118.708 20.1063C119.099 20.7356 119.291 21.4892 119.291 22.3744C119.291 23.2597 119.099 24.0499 118.708 24.6864Z" fill="#493FEE"/>
<path d="M99.4261 36.737V42.2682H78.2854V38.6319L89.5639 27.0793C90.2572 26.3915 90.8105 25.755 91.2309 25.177C91.644 24.599 91.9464 24.0649 92.1456 23.5674C92.3374 23.0479 92.4333 22.5211 92.4333 22.0017C92.4333 20.8749 92.0571 19.997 91.3121 19.3604C90.5892 18.702 89.6303 18.3727 88.4427 18.3727C87.2551 18.3727 86.2224 18.6873 85.2782 19.3165C84.3635 19.9238 83.471 20.9262 82.6153 22.3309L78.2485 18.5776C79.414 16.6241 80.8966 15.1535 82.6965 14.1585C84.5037 13.1707 86.5691 12.6732 88.9 12.6732C90.9211 12.6732 92.6693 13.0464 94.1446 13.7853C95.642 14.5316 96.7927 15.5925 97.5967 16.968C98.4303 18.3435 98.8433 19.9531 98.8433 21.7968C98.8433 22.9528 98.6884 24.021 98.386 25.016C98.0836 25.9745 97.582 26.9403 96.8886 27.906C96.2247 28.8425 95.3174 29.8742 94.1815 31.0009L88.3689 36.737H99.4261Z" fill="#493FEE"/>
<path d="M74.8336 17.4651C73.978 16.0604 72.7978 14.9848 71.3004 14.2459C69.803 13.4996 68.1211 13.1265 66.2623 13.1265H53.988V42.2678H60.5235V31.659H66.2623C68.1211 31.659 69.803 31.2859 71.3004 30.5469C72.7978 29.7714 73.978 28.7032 74.8336 27.3277C75.7262 25.9229 76.1688 24.2694 76.1688 22.3744C76.1688 20.4795 75.7262 18.8406 74.8336 17.4651ZM69.0948 24.6864C68.7039 25.3156 68.1802 25.7985 67.5163 26.1278C66.845 26.457 66.1148 26.6253 65.3108 26.6253H60.5235V18.1602H65.3108C66.1148 18.1602 66.845 18.3285 67.5163 18.6577C68.1802 18.9869 68.7039 19.4698 69.0948 20.1063C69.4858 20.7356 69.6776 21.4892 69.6776 22.3744C69.6776 23.2597 69.4858 24.0499 69.0948 24.6864Z" fill="#493FEE"/>
</g>
<defs>
<clipPath id="clip0_1_120">
<rect width="484" height="56" fill="white"/>
</clipPath>
</defs>
</svg>
